<svg xmlns="http://www.w3.org/2000/svg" viewBox="0 0 779.44 680.24"><defs><style>.cls-1{fill:#a71d31;}.cls-2{fill:#780000;}.cls-3{fill:#fff;}.cls-4{fill:#57595b;}</style></defs><title>typewriter</title><g id="Layer_2" data-name="Layer 2"><g id="desktop"><g id="others-assets"><path class="cls-1" d="M214.07,268.61a28.33,28.33,0,0,1,28.33-28.33H477.05a28.33,28.33,0,0,1,28.33,28.33v7H609.55V234.37a46.25,46.25,0,0,0-46.12-46.12H156a46.26,46.26,0,0,0-46.13,46.12V275.6H214.07Z"/><path d="M609.55,278.31H505.38a2.71,2.71,0,0,1-2.71-2.71v-7A25.66,25.66,0,0,0,477.05,243H242.4a25.66,25.66,0,0,0-25.63,25.63v7a2.7,2.7,0,0,1-2.7,2.71H109.89a2.7,2.7,0,0,1-2.7-2.71V234.37A48.89,48.89,0,0,1,156,185.54H563.43a48.89,48.89,0,0,1,48.83,48.83V275.6A2.71,2.71,0,0,1,609.55,278.31Zm-101.46-5.42h98.75V234.37A43.45,43.45,0,0,0,563.43,191H156a43.46,43.46,0,0,0-43.42,43.41v38.52h98.76v-4.28a31.08,31.08,0,0,1,31-31H477.05a31.08,31.08,0,0,1,31,31Z"/><path class="cls-2" d="M505.38,275.6v-7a28.33,28.33,0,0,0-28.33-28.33H242.4a28.33,28.33,0,0,0-28.33,28.33v7H109.89v163H231.23c.56-39.57,33-56.48,33-56.48L319.71,345a44,44,0,0,1,80,0l55.53,37.13h0s32.4,16.91,32.94,56.48H609.55v-163Z"/><path d="M609.55,441.35H488.2a2.7,2.7,0,0,1-2.7-2.67c-.52-37.53-31.18-53.95-31.49-54.11l-55.79-37.29a2.7,2.7,0,0,1-1-1.13,41.24,41.24,0,0,0-75.08,0,2.7,2.7,0,0,1-1,1.13l-55.53,37.13c-.56.32-31.22,16.86-31.75,54.27a2.7,2.7,0,0,1-2.71,2.67H109.89a2.7,2.7,0,0,1-2.7-2.71v-163a2.71,2.71,0,0,1,2.7-2.71H211.36v-4.28a31.08,31.08,0,0,1,31-31H477.05a31.08,31.08,0,0,1,31,31v4.28H609.55a2.71,2.71,0,0,1,2.71,2.71v163A2.71,2.71,0,0,1,609.55,441.35Zm-118.72-5.42h116V278.31H505.38a2.71,2.71,0,0,1-2.71-2.71v-7A25.66,25.66,0,0,0,477.05,243H242.4a25.66,25.66,0,0,0-25.63,25.63v7a2.7,2.7,0,0,1-2.7,2.71H112.6V435.93h116c1.91-38.81,33-55.46,34.32-56.17l54.65-36.56a46.66,46.66,0,0,1,84.28,0l54.89,36.71-.06.09C463.33,383.3,489.09,401.46,490.83,435.93Z"/><path class="cls-3" d="M676.2,91.54v27.15a50.27,50.27,0,1,0,100.53,0V91.54Z"/><path d="M726.47,171.66a53,53,0,0,1-53-53V91.54a2.71,2.71,0,0,1,2.71-2.71H776.73a2.71,2.71,0,0,1,2.71,2.71v27.15A53,53,0,0,1,726.47,171.66ZM678.91,94.25v24.44a47.56,47.56,0,1,0,95.12,0V94.25Z"/><path class="cls-3" d="M574.21,2.71H232.93C184,2.71,144.34,25.22,144.34,53V405.74H574.21V53c0-27.75,29.36-51.73,56.59-46.26Z"/><path d="M574.21,408.44H144.34c-2.64,0-4.77-1.21-4.77-2.7V53c0-29.21,41.88-53,93.36-53L630.8,4c2.64,0,4.77,1.21,4.77,2.71s-2.13,2.7-4.77,2.7C584.58,9.41,579,26.75,579,53V405.74C579,407.23,576.85,408.44,574.21,408.44ZM149.11,403H569.44V53c0-20.84,21.33-38.92,52.26-47.56H232.93c-46.22,0-83.82,21.34-83.82,47.56Z"/><path class="cls-3" d="M676.2,118.69V57a50.27,50.27,0,0,0-100.53,0V169h150.8A50.27,50.27,0,0,1,676.2,118.69Z"/><path d="M726.47,171.66H575.67A2.7,2.7,0,0,1,573,169V57a53,53,0,0,1,105.95,0v61.72a47.61,47.61,0,0,0,47.56,47.56,2.71,2.71,0,0,1,0,5.41Zm-148.09-5.41H703.14a53,53,0,0,1-29.65-47.56V57a47.56,47.56,0,1,0-95.11,0Z"/><path class="cls-3" d="M120.53,631.48v0l-4.06-73.41Z"/><path d="M120.64,634.21h-.22a2.73,2.73,0,0,1-2.3-1.5,2.62,2.62,0,0,1-.3-1.22l-4-73.24a2.7,2.7,0,0,1,2.55-2.85,2.62,2.62,0,0,1,2.85,2.55l4,72.66a2.66,2.66,0,0,1,.15.9A2.71,2.71,0,0,1,120.64,634.21Z"/><rect class="cls-2" x="609.55" y="234.37" width="19.22" height="41.23"/><path d="M628.77,278.31H609.55a2.71,2.71,0,0,1-2.71-2.71V234.37a2.71,2.71,0,0,1,2.71-2.71h19.22a2.71,2.71,0,0,1,2.71,2.71V275.6A2.71,2.71,0,0,1,628.77,278.31Zm-16.51-5.42h13.8V237.08h-13.8Z"/><path class="cls-2" d="M676.14,283.81A13.22,13.22,0,0,1,663,297H642a13.22,13.22,0,0,1-13.18-13.18V226.16A13.22,13.22,0,0,1,642,213h21a13.22,13.22,0,0,1,13.18,13.18Z"/><path d="M663,299.7H642a15.91,15.91,0,0,1-15.89-15.89V226.16A15.9,15.9,0,0,1,642,210.28h21a15.9,15.9,0,0,1,15.89,15.88v57.65A15.91,15.91,0,0,1,663,299.7Zm-21-84a10.49,10.49,0,0,0-10.47,10.47v57.65A10.49,10.49,0,0,0,642,294.29h21a10.48,10.48,0,0,0,10.47-10.48V226.16A10.48,10.48,0,0,0,663,215.69Z"/><path d="M664.47,230.89h-24a2.71,2.71,0,1,1,0-5.41h24a2.71,2.71,0,0,1,0,5.41Z"/><path d="M664.47,248.76h-24a2.71,2.71,0,1,1,0-5.41h24a2.71,2.71,0,0,1,0,5.41Z"/><path d="M664.47,266.63h-24a2.71,2.71,0,1,1,0-5.41h24a2.71,2.71,0,0,1,0,5.41Z"/><path d="M664.47,284.5h-24a2.71,2.71,0,1,1,0-5.41h24a2.71,2.71,0,0,1,0,5.41Z"/><path class="cls-2" d="M44.53,196.8a20.91,20.91,0,1,1-20.92-20.91A20.91,20.91,0,0,1,44.53,196.8Z"/><path d="M23.61,220.42A23.62,23.62,0,1,1,47.23,196.8,23.64,23.64,0,0,1,23.61,220.42Zm0-41.82a18.21,18.21,0,1,0,18.21,18.2A18.22,18.22,0,0,0,23.61,178.6Z"/><path d="M109.89,257.69H93.42c-10.57,0-19.18-10.08-19.18-22.47V216.57c0-9.41-6.06-17.06-13.5-17.06H44.53a2.71,2.71,0,0,1,0-5.42H60.74c10.43,0,18.91,10.08,18.91,22.48v18.65c0,9.41,6.18,17.06,13.77,17.06h16.47a2.71,2.71,0,1,1,0,5.41Z"/><path d="M23.62,210.5a2.71,2.71,0,0,1-2.71-2.71v-22a2.71,2.71,0,1,1,5.42,0v22A2.71,2.71,0,0,1,23.62,210.5Z"/><path class="cls-1" d="M628.82,346.53v53.84a26.92,26.92,0,0,0,0-53.84Z"/><path d="M628.82,403.08a2.7,2.7,0,0,1-2.71-2.71V346.53a2.7,2.7,0,0,1,.8-1.92,2.38,2.38,0,0,1,1.93-.79,29.63,29.63,0,0,1,0,59.26Zm2.71-53.67v48.08a24.21,24.21,0,0,0,0-48.08Z"/><path class="cls-1" d="M90.62,346.53v53.84a26.92,26.92,0,0,1,0-53.84Z"/><path d="M90.62,403.08h0a29.63,29.63,0,0,1,0-59.26,2.56,2.56,0,0,1,1.93.79,2.7,2.7,0,0,1,.8,1.92v53.84a2.7,2.7,0,0,1-2.71,2.71Zm-2.71-53.67a24.21,24.21,0,0,0,0,48.08Z"/><rect class="cls-4" x="90.62" y="359.04" width="19.27" height="28.83"/><path d="M109.89,390.57H90.62a2.71,2.71,0,0,1-2.71-2.71V359a2.71,2.71,0,0,1,2.71-2.71h19.27A2.71,2.71,0,0,1,112.6,359v28.82A2.71,2.71,0,0,1,109.89,390.57Zm-16.56-5.41h13.86V361.74H93.33Z"/><rect class="cls-4" x="609.52" y="359.04" width="19.27" height="28.83"/><path d="M628.79,390.57H609.52a2.7,2.7,0,0,1-2.7-2.71V359a2.7,2.7,0,0,1,2.7-2.71h19.27A2.71,2.71,0,0,1,631.5,359v28.82A2.71,2.71,0,0,1,628.79,390.57Zm-16.56-5.41h13.85V361.74H612.23Z"/><path d="M277.21,376.16H109.89a2.71,2.71,0,0,1,0-5.42H277.21a2.71,2.71,0,1,1,0,5.42Z"/><path d="M609.14,376.16H441.82a2.71,2.71,0,1,1,0-5.42H609.14a2.71,2.71,0,1,1,0,5.42Z"/><path class="cls-1" d="M551.91,438.64H488.2c-.54-39.57-32.94-56.48-32.94-56.48h0L399.72,345a44,44,0,0,0-80,0l-55.52,37.13s-32.4,16.91-33,56.48H109.89l6.59,119.45,4.06,73.41c1.4,25.32,23.3,46,48.65,46H550.25c25.37,0,47.26-20.71,48.67-46l4-73.41,6.59-119.45Z"/><path d="M550.25,680.24H169.19c-26.83,0-49.87-21.8-51.35-48.59L107.19,438.79a2.67,2.67,0,0,1,.74-2,2.7,2.7,0,0,1,2-.85H228.61c1.91-38.81,33-55.46,34.32-56.17l54.65-36.56a46.66,46.66,0,0,1,84.28,0l54.89,36.71-.06.09c6.64,3.3,32.4,21.46,34.14,55.93H609.55a2.72,2.72,0,0,1,2,.85,2.66,2.66,0,0,1,.73,2L601.62,631.65C600.13,658.44,577.08,680.24,550.25,680.24ZM112.75,441.35l10.49,190c1.33,24,22,43.47,46,43.47H550.25c24,0,44.63-19.5,46-43.47l10.48-190H488.2a2.7,2.7,0,0,1-2.7-2.67c-.52-37.41-31.19-53.95-31.49-54.12l-55.79-37.28a2.7,2.7,0,0,1-1-1.13,41.24,41.24,0,0,0-75.08,0,2.7,2.7,0,0,1-1,1.13l-55.53,37.13c-.56.32-31.22,16.86-31.75,54.27a2.7,2.7,0,0,1-2.71,2.67Z"/><path class="cls-3" d="M225.16,489a11.78,11.78,0,1,1-11.78-11.78A11.78,11.78,0,0,1,225.16,489Z"/><path d="M213.38,503.44A14.49,14.49,0,1,1,227.87,489,14.5,14.5,0,0,1,213.38,503.44Zm0-23.55a9.07,9.07,0,1,0,9.07,9.07A9.08,9.08,0,0,0,213.38,479.89Z"/><path class="cls-3" d="M273.94,489a11.78,11.78,0,1,1-11.78-11.78A11.77,11.77,0,0,1,273.94,489Z"/><path d="M262.16,503.44A14.49,14.49,0,1,1,276.65,489,14.5,14.5,0,0,1,262.16,503.44Zm0-23.55a9.07,9.07,0,1,0,9.07,9.07A9.08,9.08,0,0,0,262.16,479.89Z"/><path class="cls-3" d="M322.73,489A11.78,11.78,0,1,1,311,477.18,11.78,11.78,0,0,1,322.73,489Z"/><path d="M311,503.44A14.49,14.49,0,1,1,325.44,489,14.5,14.5,0,0,1,311,503.44Zm0-23.55A9.07,9.07,0,1,0,320,489,9.09,9.09,0,0,0,311,479.89Z"/><path class="cls-3" d="M371.5,489a11.78,11.78,0,1,1-11.77-11.78A11.77,11.77,0,0,1,371.5,489Z"/><path d="M359.73,503.44A14.49,14.49,0,1,1,374.21,489,14.5,14.5,0,0,1,359.73,503.44Zm0-23.55a9.07,9.07,0,1,0,9.06,9.07A9.08,9.08,0,0,0,359.73,479.89Z"/><path class="cls-3" d="M420.28,489a11.78,11.78,0,1,1-11.77-11.78A11.77,11.77,0,0,1,420.28,489Z"/><path d="M408.51,503.44A14.49,14.49,0,1,1,423,489,14.5,14.5,0,0,1,408.51,503.44Zm0-23.55a9.07,9.07,0,1,0,9.06,9.07A9.08,9.08,0,0,0,408.51,479.89Z"/><path class="cls-3" d="M469.07,489a11.78,11.78,0,1,1-11.79-11.78A11.78,11.78,0,0,1,469.07,489Z"/><path d="M457.28,503.44A14.49,14.49,0,1,1,471.78,489,14.49,14.49,0,0,1,457.28,503.44Zm0-23.55a9.07,9.07,0,1,0,9.08,9.07A9.08,9.08,0,0,0,457.28,479.89Z"/><path class="cls-3" d="M517.84,489a11.78,11.78,0,1,1-11.78-11.78A11.77,11.77,0,0,1,517.84,489Z"/><path d="M506.06,503.44A14.49,14.49,0,1,1,520.55,489,14.5,14.5,0,0,1,506.06,503.44Zm0-23.55a9.07,9.07,0,1,0,9.07,9.07A9.07,9.07,0,0,0,506.06,479.89Z"/><path class="cls-3" d="M566.62,489a11.78,11.78,0,1,1-11.78-11.78A11.77,11.77,0,0,1,566.62,489Z"/><path d="M554.84,503.44A14.49,14.49,0,1,1,569.33,489,14.5,14.5,0,0,1,554.84,503.44Zm0-23.55a9.07,9.07,0,1,0,9.08,9.07A9.08,9.08,0,0,0,554.84,479.89Z"/><path class="cls-3" d="M176.37,489a11.78,11.78,0,1,1-11.77-11.78A11.76,11.76,0,0,1,176.37,489Z"/><path d="M164.6,503.44A14.49,14.49,0,1,1,179.08,489,14.5,14.5,0,0,1,164.6,503.44Zm0-23.55a9.07,9.07,0,1,0,9.07,9.07A9.08,9.08,0,0,0,164.6,479.89Z"/><path class="cls-3" d="M200.76,533.9A11.77,11.77,0,1,1,189,522.13,11.77,11.77,0,0,1,200.76,533.9Z"/><path d="M189,548.39a14.49,14.49,0,1,1,14.48-14.49A14.5,14.5,0,0,1,189,548.39Zm0-23.55a9.07,9.07,0,1,0,9.07,9.06A9.06,9.06,0,0,0,189,524.84Z"/><path class="cls-3" d="M249.55,533.9a11.78,11.78,0,1,1-11.77-11.77A11.77,11.77,0,0,1,249.55,533.9Z"/><path d="M237.78,548.39a14.49,14.49,0,1,1,14.48-14.49A14.51,14.51,0,0,1,237.78,548.39Zm0-23.55a9.07,9.07,0,1,0,9.06,9.06A9.08,9.08,0,0,0,237.78,524.84Z"/><path class="cls-3" d="M298.33,533.9a11.78,11.78,0,1,1-11.79-11.77A11.78,11.78,0,0,1,298.33,533.9Z"/><path d="M286.54,548.39A14.49,14.49,0,1,1,301,533.9,14.5,14.5,0,0,1,286.54,548.39Zm0-23.55a9.07,9.07,0,1,0,9.08,9.06A9.06,9.06,0,0,0,286.54,524.84Z"/><path class="cls-3" d="M347.11,533.9a11.78,11.78,0,1,1-11.78-11.77A11.77,11.77,0,0,1,347.11,533.9Z"/><path d="M335.33,548.39a14.49,14.49,0,1,1,14.49-14.49A14.5,14.5,0,0,1,335.33,548.39Zm0-23.55a9.07,9.07,0,1,0,9.07,9.06A9.06,9.06,0,0,0,335.33,524.84Z"/><path class="cls-3" d="M395.9,533.9a11.79,11.79,0,1,1-11.79-11.77A11.78,11.78,0,0,1,395.9,533.9Z"/><path d="M384.11,548.39A14.49,14.49,0,1,1,398.6,533.9,14.51,14.51,0,0,1,384.11,548.39Zm0-23.55a9.07,9.07,0,1,0,9.08,9.06A9.07,9.07,0,0,0,384.11,524.84Z"/><path class="cls-3" d="M444.67,533.9a11.78,11.78,0,1,1-11.78-11.77A11.77,11.77,0,0,1,444.67,533.9Z"/><path d="M432.89,548.39a14.49,14.49,0,1,1,14.48-14.49A14.5,14.5,0,0,1,432.89,548.39Zm0-23.55A9.07,9.07,0,1,0,442,533.9,9.07,9.07,0,0,0,432.89,524.84Z"/><path class="cls-3" d="M493.45,533.9a11.78,11.78,0,1,1-11.77-11.77A11.77,11.77,0,0,1,493.45,533.9Z"/><path d="M481.68,548.39a14.49,14.49,0,1,1,14.48-14.49A14.51,14.51,0,0,1,481.68,548.39Zm0-23.55a9.07,9.07,0,1,0,9.07,9.06A9.07,9.07,0,0,0,481.68,524.84Z"/><path class="cls-3" d="M542.24,533.9a11.78,11.78,0,1,1-11.79-11.77A11.78,11.78,0,0,1,542.24,533.9Z"/><path d="M530.45,548.39a14.49,14.49,0,1,1,14.49-14.49A14.5,14.5,0,0,1,530.45,548.39Zm0-23.55a9.07,9.07,0,1,0,9.08,9.06A9.07,9.07,0,0,0,530.45,524.84Z"/><path class="cls-3" d="M225.16,582.26a11.78,11.78,0,1,1-11.78-11.78A11.78,11.78,0,0,1,225.16,582.26Z"/><path d="M213.38,596.74a14.49,14.49,0,1,1,14.49-14.48A14.5,14.5,0,0,1,213.38,596.74Zm0-23.56a9.08,9.08,0,1,0,9.07,9.08A9.08,9.08,0,0,0,213.38,573.18Z"/><path class="cls-3" d="M273.94,582.26a11.78,11.78,0,1,1-11.78-11.78A11.77,11.77,0,0,1,273.94,582.26Z"/><path d="M262.16,596.74a14.49,14.49,0,1,1,14.49-14.48A14.5,14.5,0,0,1,262.16,596.74Zm0-23.56a9.08,9.08,0,1,0,9.07,9.08A9.08,9.08,0,0,0,262.16,573.18Z"/><path class="cls-3" d="M322.73,582.26A11.78,11.78,0,1,1,311,570.48,11.78,11.78,0,0,1,322.73,582.26Z"/><path d="M311,596.74a14.49,14.49,0,1,1,14.49-14.48A14.5,14.5,0,0,1,311,596.74Zm0-23.56a9.08,9.08,0,1,0,9.07,9.08A9.09,9.09,0,0,0,311,573.18Z"/><path class="cls-3" d="M371.5,582.26a11.78,11.78,0,1,1-11.77-11.78A11.77,11.77,0,0,1,371.5,582.26Z"/><path d="M359.73,596.74a14.49,14.49,0,1,1,14.48-14.48A14.5,14.5,0,0,1,359.73,596.74Zm0-23.56a9.08,9.08,0,1,0,9.06,9.08A9.09,9.09,0,0,0,359.73,573.18Z"/><path class="cls-3" d="M420.28,582.26a11.78,11.78,0,1,1-11.77-11.78A11.77,11.77,0,0,1,420.28,582.26Z"/><path d="M408.51,596.74A14.49,14.49,0,1,1,423,582.26,14.5,14.5,0,0,1,408.51,596.74Zm0-23.56a9.08,9.08,0,1,0,9.06,9.08A9.08,9.08,0,0,0,408.51,573.18Z"/><path class="cls-3" d="M469.07,582.26a11.78,11.78,0,1,1-11.79-11.78A11.78,11.78,0,0,1,469.07,582.26Z"/><path d="M457.28,596.74a14.49,14.49,0,1,1,14.5-14.48A14.49,14.49,0,0,1,457.28,596.74Zm0-23.56a9.08,9.08,0,1,0,9.08,9.08A9.08,9.08,0,0,0,457.28,573.18Z"/><path class="cls-3" d="M517.84,582.26a11.78,11.78,0,1,1-11.78-11.78A11.77,11.77,0,0,1,517.84,582.26Z"/><path d="M506.06,596.74a14.49,14.49,0,1,1,14.49-14.48A14.5,14.5,0,0,1,506.06,596.74Zm0-23.56a9.08,9.08,0,1,0,9.07,9.08A9.08,9.08,0,0,0,506.06,573.18Z"/><path class="cls-3" d="M566.62,582.26a11.78,11.78,0,1,1-11.78-11.78A11.77,11.77,0,0,1,566.62,582.26Z"/><path d="M554.84,596.74a14.49,14.49,0,1,1,14.49-14.48A14.5,14.5,0,0,1,554.84,596.74Zm0-23.56a9.08,9.08,0,1,0,9.08,9.08A9.08,9.08,0,0,0,554.84,573.18Z"/><path class="cls-3" d="M176.37,582.26a11.78,11.78,0,1,1-11.77-11.78A11.76,11.76,0,0,1,176.37,582.26Z"/><path d="M164.6,596.74a14.49,14.49,0,1,1,14.48-14.48A14.5,14.5,0,0,1,164.6,596.74Zm0-23.56a9.08,9.08,0,1,0,9.07,9.08A9.08,9.08,0,0,0,164.6,573.18Z"/><path class="cls-3" d="M200.76,627.21A11.77,11.77,0,1,1,189,615.42,11.78,11.78,0,0,1,200.76,627.21Z"/><path d="M189,641.69a14.49,14.49,0,1,1,14.48-14.48A14.5,14.5,0,0,1,189,641.69Zm0-23.56a9.08,9.08,0,1,0,9.07,9.08A9.08,9.08,0,0,0,189,618.13Z"/><path class="cls-3" d="M249.55,627.21a11.78,11.78,0,1,1-11.77-11.79A11.78,11.78,0,0,1,249.55,627.21Z"/><path d="M237.78,641.69a14.49,14.49,0,1,1,14.48-14.48A14.51,14.51,0,0,1,237.78,641.69Zm0-23.56a9.08,9.08,0,1,0,9.06,9.08A9.09,9.09,0,0,0,237.78,618.13Z"/><path class="cls-3" d="M298.33,627.21a11.78,11.78,0,1,1-11.79-11.79A11.78,11.78,0,0,1,298.33,627.21Z"/><path d="M286.54,641.69A14.49,14.49,0,1,1,301,627.21,14.5,14.5,0,0,1,286.54,641.69Zm0-23.56a9.08,9.08,0,1,0,9.08,9.08A9.08,9.08,0,0,0,286.54,618.13Z"/><path class="cls-3" d="M347.11,627.21a11.78,11.78,0,1,1-11.78-11.79A11.78,11.78,0,0,1,347.11,627.21Z"/><path d="M335.33,641.69a14.49,14.49,0,1,1,14.49-14.48A14.5,14.5,0,0,1,335.33,641.69Zm0-23.56a9.08,9.08,0,1,0,9.07,9.08A9.08,9.08,0,0,0,335.33,618.13Z"/><path class="cls-3" d="M395.9,627.21a11.79,11.79,0,1,1-11.79-11.79A11.79,11.79,0,0,1,395.9,627.21Z"/><path d="M384.11,641.69a14.49,14.49,0,1,1,14.49-14.48A14.5,14.5,0,0,1,384.11,641.69Zm0-23.56a9.08,9.08,0,1,0,9.08,9.08A9.08,9.08,0,0,0,384.11,618.13Z"/><path class="cls-3" d="M444.67,627.21a11.78,11.78,0,1,1-11.78-11.79A11.77,11.77,0,0,1,444.67,627.21Z"/><path d="M432.89,641.69a14.49,14.49,0,1,1,14.48-14.48A14.5,14.5,0,0,1,432.89,641.69Zm0-23.56a9.08,9.08,0,1,0,9.07,9.08A9.08,9.08,0,0,0,432.89,618.13Z"/><path class="cls-3" d="M493.45,627.21a11.78,11.78,0,1,1-11.77-11.79A11.78,11.78,0,0,1,493.45,627.21Z"/><path d="M481.68,641.69a14.49,14.49,0,1,1,14.48-14.48A14.5,14.5,0,0,1,481.68,641.69Zm0-23.56a9.08,9.08,0,1,0,9.07,9.08A9.08,9.08,0,0,0,481.68,618.13Z"/><path class="cls-3" d="M542.24,627.21a11.78,11.78,0,1,1-11.79-11.79A11.78,11.78,0,0,1,542.24,627.21Z"/><path d="M530.45,641.69a14.49,14.49,0,1,1,14.49-14.48A14.5,14.5,0,0,1,530.45,641.69Zm0-23.56a9.08,9.08,0,1,0,9.08,9.08A9.08,9.08,0,0,0,530.45,618.13Z"/><path class="cls-3" d="M603,558.09l-4,73.41v0Z"/><path d="M598.92,634.21h-.08a2.71,2.71,0,0,1-2.57-2.16,2.62,2.62,0,0,1-.06-.57h0v-.13l4-73.41a2.7,2.7,0,0,1,5.4.3l-4,73.41A2.72,2.72,0,0,1,598.92,634.21Z"/><path class="cls-4" d="M389,353.69a30.77,30.77,0,1,1-58.5,0l-50.82,34a83.72,83.72,0,0,0,160.13,0Z"/><path d="M359.72,449.64a86,86,0,0,1-82.66-61.17,2.7,2.7,0,0,1,1.08-3l50.82-34a2.71,2.71,0,0,1,4.08,3.09,28.06,28.06,0,1,0,54.74,8.68,27.75,27.75,0,0,0-1.39-8.68,2.71,2.71,0,0,1,4.09-3.09l50.81,34a2.7,2.7,0,0,1,1.08,3A85.94,85.94,0,0,1,359.72,449.64ZM282.85,388.8a81,81,0,0,0,153.73,0L393,359.65a32.53,32.53,0,0,1,.19,3.56,33.48,33.48,0,1,1-66.95,0,32.66,32.66,0,0,1,.19-3.56Z"/><path class="cls-4" d="M389,353.69a30.75,30.75,0,1,0,1.52,9.52A30.78,30.78,0,0,0,389,353.69Z"/><path d="M359.72,396.69a33.46,33.46,0,1,1,33.47-33.48A33.51,33.51,0,0,1,359.72,396.69Zm0-61.53a28.1,28.1,0,1,0,26.67,19.37A28,28,0,0,0,359.72,335.16Z"/><path d="M384.88,459.55a2.71,2.71,0,0,1-.69-5.32,92.9,92.9,0,0,0,35.74-18.41,2.71,2.71,0,1,1,3.46,4.16,98.05,98.05,0,0,1-37.82,19.48A2.72,2.72,0,0,1,384.88,459.55Z"/><path d="M441.82,417.49a2.74,2.74,0,0,1-1.43-.4,2.71,2.71,0,0,1-.86-3.74,95.83,95.83,0,0,0,10.27-22.61,2.71,2.71,0,1,1,5.18,1.57,100.89,100.89,0,0,1-10.86,23.91A2.72,2.72,0,0,1,441.82,417.49Z"/><path d="M273.94,417.49a2.7,2.7,0,0,1-1.65-4.85L313.6,380.8a2.71,2.71,0,1,1,3.31,4.29L275.6,416.93A2.72,2.72,0,0,1,273.94,417.49Z"/><path d="M284.91,433.9a2.71,2.71,0,0,1-1.89-4.64l26-25.46a2.7,2.7,0,0,1,3.78,3.87l-26,25.46A2.75,2.75,0,0,1,284.91,433.9Z"/></g></g></g></svg>